<?xml version="1.0" encoding="UTF-8" standalone="no"?>
<svg
   width="100"
   height="100"
   viewBox="25 24 50 50"
   className="w-64 h-auto"
   version="1.1"
   id="svg5"
   sodipodi:docname="icon.svg"
   inkscape:version="1.4.2 (ebf0e940, 2025-05-08)"
   inkscape:export-filename="../public/android-chrome-512.png"
   inkscape:export-xdpi="983.03998"
   inkscape:export-ydpi="983.03998"
   xmlns:inkscape="http://www.inkscape.org/namespaces/inkscape"
   xmlns:sodipodi="http://sodipodi.sourceforge.net/DTD/sodipodi-0.dtd"
   xmlns="http://www.w3.org/2000/svg"
   xmlns:svg="http://www.w3.org/2000/svg"
   xmlns:rdf="http://www.w3.org/1999/02/22-rdf-syntax-ns#"
   xmlns:cc="http://creativecommons.org/ns#"
   xmlns:dc="http://purl.org/dc/elements/1.1/">
  <defs
     id="defs5" />
  <sodipodi:namedview
     id="namedview5"
     pagecolor="#ffffff"
     bordercolor="#000000"
     borderopacity="0.25"
     inkscape:showpageshadow="2"
     inkscape:pageopacity="0.0"
     inkscape:pagecheckerboard="0"
     inkscape:deskcolor="#d1d1d1"
     inkscape:zoom="5.8104122"
     inkscape:cx="31.495184"
     inkscape:cy="39.239901"
     inkscape:window-width="1680"
     inkscape:window-height="997"
     inkscape:window-x="0"
     inkscape:window-y="25"
     inkscape:window-maximized="1"
     inkscape:current-layer="svg5"
     showgrid="false" />
  <title
     id="math-icon-title">Friendly Mascot with 1x1 Text</title>
  <g
     id="g5">
    <path
       d="M 50,30 C 25,30 25,70 50,70 C 75,70 75,30 50,30 Z"
       fill="#A0522D"
       id="path1" />
    <circle
       cx="50"
       cy="45"
       r="20"
       fill="#D2691E"
       id="circle1" />
    <circle
       cx="35"
       cy="30"
       r="5"
       fill="#A0522D"
       id="circle2" />
    <circle
       cx="65"
       cy="30"
       r="5"
       fill="#A0522D"
       id="circle3" />
    <circle
       cx="42"
       cy="42"
       r="3"
       fill="#000000"
       id="circle4" />
    <circle
       cx="58"
       cy="42"
       r="3"
       fill="#000000"
       id="circle5" />
    <polygon
       points="50,48 52,52 48,52"
       fill="#000000"
       id="polygon5" />
    <path
       d="M 42,54 Q 50,60 58,54"
       stroke="#000000"
       strokeWidth="2"
       fill="none"
       strokeLinecap="round"
       id="path5" />
  </g>
  <path
     style="font-family:'Comic Sans MS';-inkscape-font-specification:'Comic Sans MS'"
     d="M 45.731445,71.940598 H 44.56543 l -1.160157,-0.0059 q -0.410156,0 -0.574218,-0.05273 -0.298828,-0.105469 -0.298828,-0.445313 0,-0.591797 0.919921,-0.591797 l 0.28125,0.0059 0.240235,0.01172 q 0,-0.28125 -0.05273,-0.832032 -0.04687,-0.550781 -0.04687,-0.826172 0,-0.74414 0.134766,-2.261718 0.128906,-1.494141 0.123047,-2.267578 -0.785156,0.609375 -1.001953,0.609375 -0.234375,0 -0.410156,-0.175782 -0.169922,-0.175781 -0.169922,-0.404297 0,-0.27539 0.503906,-0.667968 0.316406,-0.222657 0.896484,-0.714844 0.515625,-0.521484 0.984375,-0.521484 0.392578,0 0.392578,0.451171 0,0.134766 -0.03516,0.404297 -0.03516,0.263672 -0.03516,0.398438 0,0.193359 0.01758,0.585937 0.02344,0.392578 0.02344,0.585938 0,0.667969 -0.140625,1.992187 -0.140625,1.324219 -0.140625,1.986328 0,0.339844 0.04687,0.826172 0.04687,0.486328 0.05273,0.796875 l 0.615234,-0.01172 q 0.246094,0 0.404297,0.164062 0.164063,0.158203 0.164063,0.398438 0,0.246093 -0.164063,0.404296 -0.158203,0.158204 -0.404297,0.158204 z m 4.798828,-3.744141 q 0.404297,0.298828 0.796875,0.726562 0.527344,0.574219 0.527344,0.896485 0,0.234375 -0.128906,0.416015 -0.146484,0.199219 -0.369141,0.199219 -0.427734,0 -0.908203,-0.773437 -0.175781,-0.28711 -0.5625,-0.544922 -0.421875,0.521484 -0.867187,1.089844 -0.146485,0.416015 -0.556641,0.416015 -0.246094,0 -0.416016,-0.152344 -0.169921,-0.158203 -0.169921,-0.398437 0,-0.339844 0.298828,-0.679688 0.480468,-0.544921 0.492187,-0.568359 0.09375,-0.158203 0.292969,-0.474609 -0.416016,-0.416016 -0.609375,-0.591797 -0.351563,-0.322266 -0.667969,-0.533203 -0.28125,-0.1875 -0.28125,-0.47461 0,-0.240234 0.169922,-0.421875 0.175781,-0.1875 0.410156,-0.1875 0.398438,0 1.675782,1.265625 0.457031,-0.544922 0.966796,-0.9375 0.117188,-0.08789 0.328125,-0.28125 0.19336,-0.228515 0.439454,-0.228515 0.234375,0 0.416015,0.18164 0.1875,0.175782 0.1875,0.410157 0,0.287109 -0.404297,0.632812 -0.316406,0.257813 -0.632812,0.515625 -0.205078,0.210938 -0.427735,0.498047 z m 6.369141,3.744141 h -1.166016 l -1.160156,-0.0059 q -0.410156,0 -0.574219,-0.05273 -0.298828,-0.105469 -0.298828,-0.445313 0,-0.591797 0.919922,-0.591797 l 0.28125,0.0059 0.240235,0.01172 q 0,-0.28125 -0.05273,-0.832032 -0.04687,-0.550781 -0.04687,-0.826172 0,-0.74414 0.134766,-2.261718 0.128906,-1.494141 0.123047,-2.267578 -0.785157,0.609375 -1.001953,0.609375 -0.234375,0 -0.410157,-0.175782 -0.169922,-0.175781 -0.169922,-0.404297 0,-0.27539 0.503907,-0.667968 0.316406,-0.222657 0.896484,-0.714844 0.515625,-0.521484 0.984375,-0.521484 0.392578,0 0.392578,0.451171 0,0.134766 -0.03516,0.404297 -0.03516,0.263672 -0.03516,0.398438 0,0.193359 0.01758,0.585937 0.02344,0.392578 0.02344,0.585938 0,0.667969 -0.140625,1.992187 -0.140625,1.324219 -0.140625,1.986328 0,0.339844 0.04687,0.826172 0.04687,0.486328 0.05273,0.796875 l 0.615234,-0.01172 q 0.246094,0 0.404297,0.164062 0.164062,0.158203 0.164062,0.398438 0,0.246093 -0.164062,0.404296 -0.158203,0.158204 -0.404297,0.158204 z"
     id="text5"
     aria-label="1×1" />
  <metadata
     id="metadata1">
    <rdf:RDF>
      <cc:Work
         rdf:about="">
        <dc:title>Friendly Mascot with 1x1 Text</dc:title>
      </cc:Work>
    </rdf:RDF>
  </metadata>
</svg>
