<?xml version="1.0" encoding="UTF-8" standalone="no"?>
<svg
   width="100"
   height="100"
   viewBox="0 0 60 60"
   class="inline-block"
   version="1.1"
   id="svg9"
   sodipodi:docname="icon.svg"
   inkscape:version="1.4.2 (ebf0e940, 2025-05-08)"
   xmlns:inkscape="http://www.inkscape.org/namespaces/inkscape"
   xmlns:sodipodi="http://sodipodi.sourceforge.net/DTD/sodipodi-0.dtd"
   xmlns="http://www.w3.org/2000/svg"
   xmlns:svg="http://www.w3.org/2000/svg">
  <defs
     id="defs9" />
  <sodipodi:namedview
     id="namedview9"
     pagecolor="#ffffff"
     bordercolor="#000000"
     borderopacity="0.25"
     inkscape:showpageshadow="2"
     inkscape:pageopacity="0.0"
     inkscape:pagecheckerboard="0"
     inkscape:deskcolor="#d1d1d1"
     showgrid="false"
     inkscape:zoom="12.966667"
     inkscape:cx="30"
     inkscape:cy="30"
     inkscape:window-width="1680"
     inkscape:window-height="997"
     inkscape:window-x="0"
     inkscape:window-y="25"
     inkscape:window-maximized="1"
     inkscape:current-layer="svg9" />
  <g
     id="g9">
    <!-- Ears -->
    <path
       d="M 10 20 L 5 5 L 20 15 Z"
       fill="#f97316"
       id="path1" />
    <path
       d="M 50 20 L 55 5 L 40 15 Z"
       fill="#f97316"
       id="path2" />
    <path
       d="M 12 20 L 10 10 L 20 16 Z"
       fill="#FFF"
       id="path3" />
    <path
       d="M 48 20 L 50 10 L 40 16 Z"
       fill="#FFF"
       id="path4" />
    <!-- Head -->
    <path
       d="M 10 50 C 10 20, 10 5, 30 5 C 50 5, 50 20, 50 50 Q 30 60, 10 50 Z"
       fill="#f97316"
       id="path5" />
    <!-- Muzzle -->
    <path
       d="M 20 52 C 20 40, 20 30, 30 30 C 40 30, 40 40, 40 52 Q 30 58, 20 52 Z"
       fill="#FFF"
       id="path6" />
    <!-- Nose -->
    <circle
       cx="30"
       cy="35"
       r="3"
       fill="#27272a"
       id="circle6" />
    <!-- Eyes -->
    <g
       stroke="#27272a"
       stroke-width="2"
       stroke-linecap="round"
       fill="none"
       id="g8">
      <path
         d="M18 26 A 4 4 0 0 1 26 26"
         id="path7" />
      <path
         d="M34 26 A 4 4 0 0 1 42 26"
         id="path8" />
    </g>
    <!-- Mouth -->
    <path
       d="M25 38 Q 30 45, 35 38"
       stroke="#27272a"
       stroke-width="2"
       stroke-linecap="round"
       fill="none"
       id="path9" />
  </g>
</svg>
